<?xml version="1.0" encoding="utf-8"?>
<!-- Generator: Adobe Illustrator 25.0.0, SVG Export Plug-In . SVG Version: 6.00 Build 0)  -->
<svg version="1.1" id="Layer_1" xmlns="http://www.w3.org/2000/svg" xmlns:xlink="http://www.w3.org/1999/xlink" x="0px" y="0px"
	 viewBox="0 0 32.7 38.1" style="enable-background:new 0 0 32.7 38.1;" xml:space="preserve">
<style type="text/css">
	.st0{fill:none;}
	.st1{fill:#555555;}
	.st2{fill:#686868;}
	.st3{fill:#B7B7B7;}
	.st4{fill:url(#SVGID_1_);}
	.st5{fill:#6E6E6E;}
</style>
<polygon class="st0" points="21.7,18.8 24.3,21.4 24.3,16.2 "/>
<path class="st1" d="M20.8,36.6l-1.5,1.1c-0.6,0.5-1.5,0.3-1.9-0.3L9.8,26c-0.5-0.6-0.3-1.5,0.3-1.9l1-0.5c0.6-0.5,1.5-0.3,1.9,0.3
	l8.1,10.9C21.5,35.3,21.4,36.2,20.8,36.6z"/>
<g>
	<polygon class="st0" points="21.5,18.9 24.1,21.5 24.1,16.3 	"/>
	<path class="st2" d="M20.6,36.7l-1.5,1.1c-0.6,0.5-1.5,0.3-1.9-0.3L9.6,26.1c-0.5-0.6-0.3-1.5,0.3-1.9l1-0.5
		c0.6-0.5,1.5-0.3,1.9,0.3l8.1,10.9C21.3,35.4,21.2,36.2,20.6,36.7z"/>
	<path class="st3" d="M24.1,21.5l-2.6-2.6l0,0l2.6-2.6l7.5-7.5c0.5-0.5,0.5-1.4,0-2l-6.4-6.4C24.9,0.1,24.5,0,24.1,0
		c-0.3,0-0.6,0.1-0.9,0.4L5.9,17.8c-0.3,0.3-0.4,0.7-0.4,1v0.1c0,0.4,0.1,0.8,0.4,1.1l17.2,17.2c0.3,0.3,0.6,0.4,1,0.4
		s0.7-0.1,1-0.4l6.4-6.4c0.5-0.5,0.5-1.4,0-2L24.1,21.5z"/>
	
		<linearGradient id="SVGID_1_" gradientUnits="userSpaceOnUse" x1="10.725" y1="18.2003" x2="10.725" y2="28.7828" gradientTransform="matrix(1 0 0 -1 0 37.8898)">
		<stop  offset="0" style="stop-color:#4E4E4E"/>
		<stop  offset="3.904194e-02" style="stop-color:#545454"/>
		<stop  offset="0.1235" style="stop-color:#5E5E5E"/>
		<stop  offset="0.2232" style="stop-color:#656565"/>
		<stop  offset="0.3465" style="stop-color:#6A6A6A"/>
		<stop  offset="0.5196" style="stop-color:#6E6E6E"/>
		<stop  offset="1" style="stop-color:#6E6E6E"/>
	</linearGradient>
	<path class="st4" d="M13.2,10.6L8.8,6.2c-0.6-0.6-1.6-0.6-2.2,0l-6.2,6.2c-0.6,0.6-0.6,1.6,0,2.2L4.8,19h16.7L13.2,10.6z"/>
	<path class="st5" d="M4.8,18.9L4.8,18.9l-4.3,4.3c-0.6,0.6-0.6,1.6,0,2.2l6.2,6.2c0.6,0.6,1.6,0.6,2.2,0l4.3-4.3l8.3-8.3l0,0H4.8
		V18.9z"/>
</g>
</svg>
