<svg xmlns="http://www.w3.org/2000/svg" viewBox="0 0 50.17 49.99"><defs><style>.cls-1{fill:#dce1f2;}.cls-2{fill:#fcf7f0;}.cls-3{fill:#565555;}.cls-4{fill:#e8345f;}.cls-5{fill:#574e9c;}</style></defs><g id="Layer_2" data-name="Layer 2"><g id="Layer_1-2" data-name="Layer 1"><path class="cls-1" d="M30.13.42a1.42,1.42,0,0,0-2,0l-1.5,1.5-8.85,8.85,6.31,6.32,1.72,1.72h.68l10-10a1.44,1.44,0,0,0,0-2Z"/><path class="cls-2" d="M24.07,17.09l-6.31-6.32-2.1-2.09L13,6.05a1.44,1.44,0,0,0-2,0L4.66,12.41a1.42,1.42,0,0,0,0,2L8,17.8l1,1H25.79Z"/><path class="cls-3" d="M25.42,36.7l-1.31,1.09a1.42,1.42,0,0,1-2.06-.24l-6.39-8.62,2.1-2.09,7.75,7.75A1.44,1.44,0,0,1,25.42,36.7Z"/><path class="cls-1" d="M30.13,37.19a1.42,1.42,0,0,1-2,0l-1.5-1.5-8.85-8.85,6.31-6.32,1.72-1.72h.68l10,10a1.44,1.44,0,0,1,0,2Z"/><path class="cls-2" d="M24.07,20.52l-6.31,6.32-2.1,2.09L13,31.56a1.42,1.42,0,0,1-2,0L4.66,25.2a1.42,1.42,0,0,1,0-2L8,19.81l1-1H25.79Z"/><path class="cls-3" d="M3,40.56a3.79,3.79,0,0,1,2.63.77,2.8,2.8,0,0,1,.82,2.14A3.54,3.54,0,0,1,6.09,45,2.54,2.54,0,0,1,5,46.12a4.48,4.48,0,0,1-2.15.43H2v2.33a1,1,0,0,1-1,1H1a1,1,0,0,1-1-1V41.54a1,1,0,0,1,1-1Zm-.1,1.61H2v2.77h.65a2.3,2.3,0,0,0,1.32-.33,1.21,1.21,0,0,0,.49-1.08C4.43,42.63,3.91,42.17,2.87,42.17Z"/><path class="cls-3" d="M16.37,45.2a6.16,6.16,0,0,1-.48,2.52,3.64,3.64,0,0,1-1.45,1.67,4.72,4.72,0,0,1-2.5.6,4.75,4.75,0,0,1-2.5-.6A3.68,3.68,0,0,1,8,47.71a6.16,6.16,0,0,1-.47-2.52A6.1,6.1,0,0,1,8,42.67,3.63,3.63,0,0,1,9.44,41,4.76,4.76,0,0,1,12,40.42a4.69,4.69,0,0,1,2.49.59,3.59,3.59,0,0,1,1.45,1.67A6.09,6.09,0,0,1,16.37,45.2Zm-6.79,0a4.06,4.06,0,0,0,.56,2.3,2,2,0,0,0,1.8.84,2,2,0,0,0,1.81-.84,5.11,5.11,0,0,0,0-4.61,2,2,0,0,0-1.8-.83,2,2,0,0,0-1.81.83A4.07,4.07,0,0,0,9.58,45.2Z"/><path class="cls-3" d="M21,40.56a3.78,3.78,0,0,1,2.62.77,2.8,2.8,0,0,1,.83,2.14A3.41,3.41,0,0,1,24.12,45,2.49,2.49,0,0,1,23,46.12a4.44,4.44,0,0,1-2.14.43H20v2.33a1,1,0,0,1-1,1h0a1,1,0,0,1-1-1V41.54a1,1,0,0,1,1-1Zm-.11,1.61H20v2.77h.65A2.36,2.36,0,0,0,22,44.61a1.23,1.23,0,0,0,.49-1.08C22.47,42.63,21.94,42.17,20.9,42.17Z"/><path class="cls-3" d="M34.4,45.2a6.33,6.33,0,0,1-.47,2.52,3.6,3.6,0,0,1-1.46,1.67A4.7,4.7,0,0,1,30,50a4.68,4.68,0,0,1-2.49-.6A3.57,3.57,0,0,1,26,47.71a6.16,6.16,0,0,1-.48-2.52A6.09,6.09,0,0,1,26,42.67,3.52,3.52,0,0,1,27.48,41a4.72,4.72,0,0,1,2.5-.59,4.69,4.69,0,0,1,2.49.59,3.55,3.55,0,0,1,1.46,1.67A6.26,6.26,0,0,1,34.4,45.2Zm-6.79,0a4.14,4.14,0,0,0,.56,2.3,2,2,0,0,0,1.8.84,2,2,0,0,0,1.81-.84,4.14,4.14,0,0,0,.55-2.3,4.16,4.16,0,0,0-.55-2.31,2,2,0,0,0-1.8-.83,2,2,0,0,0-1.81.83A4.15,4.15,0,0,0,27.61,45.2Z"/><path class="cls-3" d="M46.82,49.86h-.33a.82.82,0,0,1-.82-.82V42.2H44a.82.82,0,0,1-.82-.82h0a.82.82,0,0,1,.82-.82h5.38a.83.83,0,0,1,.83.82h0a.83.83,0,0,1-.83.82h-1.7V49A.82.82,0,0,1,46.82,49.86Z"/><path class="cls-4" d="M11.94,44a.85.85,0,0,0-.74.34,2.12,2.12,0,0,0,0,1.88.83.83,0,0,0,.74.34.79.79,0,0,0,.73-.34,2,2,0,0,0,0-1.88A.81.81,0,0,0,11.94,44Z"/><path class="cls-5" d="M30.09,44a.84.84,0,0,0-.74.34,2,2,0,0,0,0,1.88.8.8,0,0,0,.73.34.82.82,0,0,0,.74-.34,2.12,2.12,0,0,0,0-1.88A.82.82,0,0,0,30.09,44Z"/><path class="cls-3" d="M42.33,46a2.54,2.54,0,0,1,.13.87,3.59,3.59,0,0,1,0,.47q0,.22-.09.39a2.34,2.34,0,0,1-.83,1.22,4.08,4.08,0,0,1-1.43.71,4.84,4.84,0,0,1-1.66.16,3.69,3.69,0,0,1-1.51-.43,2.92,2.92,0,0,1-.72-.57,3.61,3.61,0,0,1-.51-.76,1.15,1.15,0,0,1-.1-.33.92.92,0,0,1,0-.37.79.79,0,0,1,.17-.31.6.6,0,0,1,.32-.19,1.42,1.42,0,0,1,.3,0,1.1,1.1,0,0,1,.31,0A1,1,0,0,1,37,47a.71.71,0,0,1,.21.27,1.59,1.59,0,0,0,.41.5,2.22,2.22,0,0,0,.57.37,2.11,2.11,0,0,0,.86.12,2.29,2.29,0,0,0,.8-.19,1.59,1.59,0,0,0,.58-.47,1,1,0,0,0,.22-.67,1.23,1.23,0,0,0-.09-.51.88.88,0,0,0-.26-.34,1.22,1.22,0,0,0-.39-.23,3.27,3.27,0,0,0-.5-.15,4.58,4.58,0,0,0-.63-.1l-.65-.06a6.37,6.37,0,0,1-.63-.11,2.77,2.77,0,0,1-.62-.19,1.9,1.9,0,0,1-.91-.76,2.53,2.53,0,0,1-.37-1.09,2.77,2.77,0,0,1,.14-1.17,2.49,2.49,0,0,1,.62-1,2.39,2.39,0,0,1,1-.55,5.57,5.57,0,0,1,1.28-.18,7,7,0,0,1,.79,0,6.18,6.18,0,0,1,.77.13,3.5,3.5,0,0,1,.69.24,1.89,1.89,0,0,1,.55.34,1.56,1.56,0,0,1,.34.34,1.51,1.51,0,0,1,.26.46.93.93,0,0,1,.06.46.54.54,0,0,1-.28.38.7.7,0,0,1-.4.11.91.91,0,0,1-.35-.12,1.5,1.5,0,0,1-.33-.23l-.29-.23a1.9,1.9,0,0,0-.87-.35,3.28,3.28,0,0,0-1,0,2.17,2.17,0,0,0-.53.13,1.13,1.13,0,0,0-.7.63,1.06,1.06,0,0,0-.07.51.7.7,0,0,0,.12.36,1,1,0,0,0,.28.23,1.42,1.42,0,0,0,.36.14,2.7,2.7,0,0,0,.39.08q.59.08,1.17.12a3.62,3.62,0,0,1,1.15.26,3.06,3.06,0,0,1,1,.6A2.19,2.19,0,0,1,42.33,46Z"/></g></g></svg>