<svg xmlns="http://www.w3.org/2000/svg" viewBox="0 0 86.14 38.13"><defs><style>.cls-1{fill:#dce1f2;}.cls-2{fill:#fcf7f0;}.cls-3{fill:#565555;}.cls-4{fill:#e8345f;}.cls-5{fill:#574e9c;}</style></defs><g id="Layer_2" data-name="Layer 2"><g id="Layer_1-2" data-name="Layer 1"><path class="cls-1" d="M25.89.42a1.42,1.42,0,0,0-2,0l-1.5,1.5-8.86,8.85,6.32,6.32,1.72,1.72h.68l10-10a1.44,1.44,0,0,0,0-2Z"/><path class="cls-2" d="M19.83,17.09l-6.32-6.32L11.42,8.68,8.79,6.05a1.44,1.44,0,0,0-2,0L.42,12.41a1.42,1.42,0,0,0,0,2L3.79,17.8l1,1H21.55Z"/><path class="cls-3" d="M21.18,36.7l-1.31,1.09a1.43,1.43,0,0,1-2.07-.24l-6.38-8.62,2.09-2.09,7.76,7.75A1.44,1.44,0,0,1,21.18,36.7Z"/><path class="cls-1" d="M25.89,37.19a1.42,1.42,0,0,1-2,0l-1.5-1.5-8.86-8.85,6.32-6.32,1.72-1.72h.68l10,10a1.44,1.44,0,0,1,0,2Z"/><path class="cls-2" d="M19.83,20.52l-6.32,6.32-2.09,2.09L8.79,31.56a1.42,1.42,0,0,1-2,0L.42,25.2a1.42,1.42,0,0,1,0-2l3.37-3.37,1-1H21.55Z"/><path class="cls-3" d="M39,15.66a3.73,3.73,0,0,1,2.62.78,2.79,2.79,0,0,1,.83,2.13,3.42,3.42,0,0,1-.34,1.52,2.59,2.59,0,0,1-1.13,1.14,4.44,4.44,0,0,1-2.14.43h-.85V24a1,1,0,0,1-1,1h0a1,1,0,0,1-1-1V16.65a1,1,0,0,1,1-1Zm-.11,1.62h-.9V20h.65a2.36,2.36,0,0,0,1.33-.33,1.22,1.22,0,0,0,.49-1.07C40.41,17.73,39.88,17.28,38.84,17.28Z"/><path class="cls-3" d="M52.34,20.3a6.35,6.35,0,0,1-.47,2.53,3.71,3.71,0,0,1-1.46,1.67,5.49,5.49,0,0,1-5,0A3.57,3.57,0,0,1,44,22.82a6.21,6.21,0,0,1-.48-2.53A6.08,6.08,0,0,1,44,17.78a3.55,3.55,0,0,1,1.46-1.67,5.57,5.57,0,0,1,5,0,3.66,3.66,0,0,1,1.46,1.67A6.33,6.33,0,0,1,52.34,20.3Zm-6.79,0a4.12,4.12,0,0,0,.56,2.3,2,2,0,0,0,1.8.84,2,2,0,0,0,1.81-.84,4.12,4.12,0,0,0,.55-2.3,4.1,4.1,0,0,0-.55-2.3,2,2,0,0,0-1.8-.84,2,2,0,0,0-1.81.84A4.09,4.09,0,0,0,45.55,20.3Z"/><path class="cls-3" d="M57,15.66a3.74,3.74,0,0,1,2.63.78,2.79,2.79,0,0,1,.82,2.13,3.55,3.55,0,0,1-.33,1.52A2.64,2.64,0,0,1,59,21.23a4.48,4.48,0,0,1-2.15.43H56V24a1,1,0,0,1-1,1h0a1,1,0,0,1-1-1V16.65a1,1,0,0,1,1-1Zm-.1,1.62H56V20h.65A2.32,2.32,0,0,0,58,19.71a1.19,1.19,0,0,0,.49-1.07C58.44,17.73,57.92,17.28,56.88,17.28Z"/><path class="cls-3" d="M70.38,20.3a6.17,6.17,0,0,1-.48,2.53,3.69,3.69,0,0,1-1.45,1.67,5.51,5.51,0,0,1-5,0A3.63,3.63,0,0,1,62,22.82a6.21,6.21,0,0,1-.47-2.53A6.08,6.08,0,0,1,62,17.78a3.6,3.6,0,0,1,1.46-1.67A4.86,4.86,0,0,1,66,15.52a4.78,4.78,0,0,1,2.49.59,3.64,3.64,0,0,1,1.45,1.67A6.16,6.16,0,0,1,70.38,20.3Zm-6.79,0a4,4,0,0,0,.56,2.3,2.36,2.36,0,0,0,3.61,0,4.2,4.2,0,0,0,.55-2.3,4.18,4.18,0,0,0-.55-2.3,2.36,2.36,0,0,0-3.61,0A4,4,0,0,0,63.59,20.3Z"/><path class="cls-3" d="M82.79,25h-.32a.83.83,0,0,1-.83-.82V17.31h-1.7a.82.82,0,0,1-.82-.82h0a.82.82,0,0,1,.82-.83h5.38a.83.83,0,0,1,.82.83h0a.82.82,0,0,1-.82.82H83.61v6.84A.82.82,0,0,1,82.79,25Z"/><path class="cls-4" d="M47.92,19.12a.82.82,0,0,0-.74.34,2,2,0,0,0,0,1.88.8.8,0,0,0,.73.34.82.82,0,0,0,.74-.34,2.12,2.12,0,0,0,0-1.88A.8.8,0,0,0,47.92,19.12Z"/><path class="cls-5" d="M66.06,19.12a.82.82,0,0,0-.74.34,2,2,0,0,0,0,1.88,1,1,0,0,0,1.47,0,2,2,0,0,0,0-1.88A.8.8,0,0,0,66.06,19.12Z"/><path class="cls-3" d="M78.3,21.08a1.64,1.64,0,0,1,.1.41,3.54,3.54,0,0,1,0,.92,2.81,2.81,0,0,1-.08.4A2.34,2.34,0,0,1,77.48,24a4.17,4.17,0,0,1-1.43.71,4.55,4.55,0,0,1-1.65.15,3.68,3.68,0,0,1-1.52-.42,2.74,2.74,0,0,1-.72-.58,3.5,3.5,0,0,1-.5-.75.75.75,0,0,1-.1-.34,1.1,1.1,0,0,1,0-.36.85.85,0,0,1,.17-.31.55.55,0,0,1,.33-.19,1.23,1.23,0,0,1,.29,0,1.19,1.19,0,0,1,.32.05.86.86,0,0,1,.29.14.71.71,0,0,1,.2.27,1.92,1.92,0,0,0,.41.5,2.53,2.53,0,0,0,.57.37,2.18,2.18,0,0,0,.87.12,2,2,0,0,0,.79-.2,1.56,1.56,0,0,0,.58-.46,1.08,1.08,0,0,0,.22-.67,1.31,1.31,0,0,0-.09-.52,1,1,0,0,0-.25-.34A1.47,1.47,0,0,0,75.9,21a3.26,3.26,0,0,0-.5-.16c-.21,0-.42-.07-.64-.09l-.64-.07c-.22,0-.43-.06-.64-.1a2.72,2.72,0,0,1-.61-.2,1.79,1.79,0,0,1-.91-.75,2.58,2.58,0,0,1-.38-1.1,2.87,2.87,0,0,1,.14-1.16,2.29,2.29,0,0,1,1.62-1.54,5.64,5.64,0,0,1,1.29-.19,5.27,5.27,0,0,1,.79,0,4.64,4.64,0,0,1,.76.13,4.78,4.78,0,0,1,.7.23,2.7,2.7,0,0,1,.55.34,1.9,1.9,0,0,1,.34.35,1.7,1.7,0,0,1,.26.45,1,1,0,0,1,.06.47.55.55,0,0,1-.28.37.57.57,0,0,1-.4.11.89.89,0,0,1-.36-.11,2.35,2.35,0,0,1-.32-.23l-.29-.24a2.13,2.13,0,0,0-.87-.35,3.66,3.66,0,0,0-1,0,3,3,0,0,0-.54.13,1.46,1.46,0,0,0-.42.25,1,1,0,0,0-.27.39,1,1,0,0,0-.07.51.57.57,0,0,0,.12.35.78.78,0,0,0,.27.24,1.42,1.42,0,0,0,.36.14l.39.08q.58.07,1.17.12a3.5,3.5,0,0,1,1.15.26,2.78,2.78,0,0,1,1,.6A2,2,0,0,1,78.3,21.08Z"/></g></g></svg>