<svg xmlns="http://www.w3.org/2000/svg" viewBox="0 0 50.17 9.58"><defs><style>.cls-1{fill:#565555;}.cls-2{fill:#e8345f;}.cls-3{fill:#574e9c;}</style></defs><g id="Layer_2" data-name="Layer 2"><g id="Layer_1-2" data-name="Layer 1"><path class="cls-1" d="M3,.14A3.74,3.74,0,0,1,5.6.92a2.79,2.79,0,0,1,.82,2.13,3.58,3.58,0,0,1-.33,1.52A2.64,2.64,0,0,1,5,5.71a4.6,4.6,0,0,1-2.15.43H2V8.46a1,1,0,0,1-1,1H1a1,1,0,0,1-1-1V1.13a1,1,0,0,1,1-1Zm-.1,1.62H2V4.52h.65a2.3,2.3,0,0,0,1.32-.33,1.2,1.2,0,0,0,.49-1.08Q4.43,1.76,2.87,1.76Z"/><path class="cls-1" d="M16.37,4.78a6.09,6.09,0,0,1-.48,2.52A3.66,3.66,0,0,1,14.44,9a4.72,4.72,0,0,1-2.5.6A4.75,4.75,0,0,1,9.44,9,3.68,3.68,0,0,1,8,7.3a6.21,6.21,0,0,1-.47-2.53A6.16,6.16,0,0,1,8,2.25,3.68,3.68,0,0,1,9.44.59,4.86,4.86,0,0,1,12,0a4.78,4.78,0,0,1,2.49.59,3.64,3.64,0,0,1,1.45,1.67A6.16,6.16,0,0,1,16.37,4.78Zm-6.79,0a4,4,0,0,0,.56,2.3,2,2,0,0,0,1.8.84,2,2,0,0,0,1.81-.84,4.2,4.2,0,0,0,.55-2.3,4.18,4.18,0,0,0-.55-2.3A2,2,0,0,0,12,1.64a2,2,0,0,0-1.81.84A4,4,0,0,0,9.58,4.78Z"/><path class="cls-1" d="M21,.14a3.73,3.73,0,0,1,2.62.78,2.79,2.79,0,0,1,.83,2.13,3.45,3.45,0,0,1-.34,1.52A2.59,2.59,0,0,1,23,5.71a4.56,4.56,0,0,1-2.14.43H20V8.46a1,1,0,0,1-1,1h0a1,1,0,0,1-1-1V1.13a1,1,0,0,1,1-1ZM20.9,1.76H20V4.52h.65A2.36,2.36,0,0,0,22,4.19a1.22,1.22,0,0,0,.49-1.08C22.47,2.21,21.94,1.76,20.9,1.76Z"/><path class="cls-1" d="M34.4,4.78a6.26,6.26,0,0,1-.47,2.52A3.63,3.63,0,0,1,32.47,9a4.7,4.7,0,0,1-2.5.6A4.68,4.68,0,0,1,27.48,9,3.57,3.57,0,0,1,26,7.3a6.21,6.21,0,0,1-.48-2.53A6.16,6.16,0,0,1,26,2.25,3.57,3.57,0,0,1,27.48.59,4.82,4.82,0,0,1,30,0a4.78,4.78,0,0,1,2.49.59,3.6,3.6,0,0,1,1.46,1.67A6.33,6.33,0,0,1,34.4,4.78Zm-6.79,0a4.12,4.12,0,0,0,.56,2.3,2,2,0,0,0,1.8.84,2,2,0,0,0,1.81-.84,4.12,4.12,0,0,0,.55-2.3,4.1,4.1,0,0,0-.55-2.3A2,2,0,0,0,30,1.64a2,2,0,0,0-1.81.84A4.09,4.09,0,0,0,27.61,4.78Z"/><path class="cls-1" d="M46.82,9.45h-.33a.82.82,0,0,1-.82-.82V1.79H44A.83.83,0,0,1,43.14,1h0A.82.82,0,0,1,44,.14h5.38a.83.83,0,0,1,.83.82h0a.83.83,0,0,1-.83.83h-1.7V8.63A.82.82,0,0,1,46.82,9.45Z"/><path class="cls-2" d="M11.94,3.6a.83.83,0,0,0-.74.34,1.7,1.7,0,0,0-.22.94,1.7,1.7,0,0,0,.22.94.83.83,0,0,0,.74.34.79.79,0,0,0,.73-.34,1.7,1.7,0,0,0,.23-.94,1.7,1.7,0,0,0-.23-.94A.79.79,0,0,0,11.94,3.6Z"/><path class="cls-3" d="M30.09,3.6a.82.82,0,0,0-.74.34,1.62,1.62,0,0,0-.23.94,1.62,1.62,0,0,0,.23.94.8.8,0,0,0,.73.34.82.82,0,0,0,.74-.34A1.7,1.7,0,0,0,31,4.88a1.7,1.7,0,0,0-.22-.94A.8.8,0,0,0,30.09,3.6Z"/><path class="cls-1" d="M42.33,5.56a3.52,3.52,0,0,1,.1.41,3.54,3.54,0,0,1,0,.92c0,.15-.06.29-.09.4a2.38,2.38,0,0,1-.83,1.22,4.26,4.26,0,0,1-1.43.71,4.6,4.6,0,0,1-1.66.15,3.54,3.54,0,0,1-1.51-.43,2.52,2.52,0,0,1-.72-.57,3.61,3.61,0,0,1-.51-.76,1,1,0,0,1-.1-.33.89.89,0,0,1,0-.36.73.73,0,0,1,.17-.31.5.5,0,0,1,.32-.19,1.39,1.39,0,0,1,.3,0,1.12,1.12,0,0,1,.31.05.78.78,0,0,1,.29.14.58.58,0,0,1,.21.27,1.59,1.59,0,0,0,.41.5,2.92,2.92,0,0,0,.57.37,2.22,2.22,0,0,0,1.66-.08,1.56,1.56,0,0,0,.58-.46,1.08,1.08,0,0,0,.22-.67A1.31,1.31,0,0,0,40.57,6a1.06,1.06,0,0,0-.26-.34,1.21,1.21,0,0,0-.39-.22,3.26,3.26,0,0,0-.5-.16l-.63-.09-.65-.07a6.37,6.37,0,0,1-.63-.1,2.8,2.8,0,0,1-.62-.2A1.83,1.83,0,0,1,36,4.06,2.57,2.57,0,0,1,35.61,3a2.71,2.71,0,0,1,.14-1.16,2.52,2.52,0,0,1,.62-1,2.49,2.49,0,0,1,1-.54A5.55,5.55,0,0,1,38.65.07a5.22,5.22,0,0,1,.79,0,4.76,4.76,0,0,1,.77.13,4.29,4.29,0,0,1,.69.23,2.45,2.45,0,0,1,.55.34,1.82,1.82,0,0,1,.34.34,1.64,1.64,0,0,1,.26.46,1,1,0,0,1,.06.46.52.52,0,0,1-.28.38.57.57,0,0,1-.4.11.89.89,0,0,1-.35-.11,2.75,2.75,0,0,1-.33-.23L40.46,2a2,2,0,0,0-.87-.35,3.64,3.64,0,0,0-1,0,2.74,2.74,0,0,0-.53.13,1.23,1.23,0,0,0-.42.25,1.08,1.08,0,0,0-.28.38,1.12,1.12,0,0,0-.07.52.64.64,0,0,0,.12.35.89.89,0,0,0,.28.23,1.44,1.44,0,0,0,.36.15l.39.08c.39.05.78.09,1.17.11a3.93,3.93,0,0,1,1.15.27,2.87,2.87,0,0,1,1,.59A2.22,2.22,0,0,1,42.33,5.56Z"/></g></g></svg>