<svg xmlns="http://www.w3.org/2000/svg" viewBox="0 0 32.66 38.13"><defs><style>.cls-1{fill:#dce1f2;}.cls-2{fill:#fcf7f0;}.cls-3{fill:#565555;}</style></defs><g id="Layer_2" data-name="Layer 2"><g id="Layer_1-2" data-name="Layer 1"><path class="cls-1" d="M25.89.42a1.42,1.42,0,0,0-2,0l-1.5,1.5-8.86,8.85,6.32,6.32,1.72,1.72h.68l10-10a1.44,1.44,0,0,0,0-2Z"/><path class="cls-2" d="M19.83,17.09l-6.32-6.32L11.42,8.68,8.79,6.05a1.44,1.44,0,0,0-2,0L.42,12.41a1.42,1.42,0,0,0,0,2L3.79,17.8l1,1H21.55Z"/><path class="cls-3" d="M21.18,36.7l-1.31,1.09a1.43,1.43,0,0,1-2.07-.24l-6.38-8.62,2.09-2.09,7.76,7.75A1.44,1.44,0,0,1,21.18,36.7Z"/><path class="cls-1" d="M25.89,37.19a1.42,1.42,0,0,1-2,0l-1.5-1.5-8.86-8.85,6.32-6.32,1.72-1.72h.68l10,10a1.44,1.44,0,0,1,0,2Z"/><path class="cls-2" d="M19.83,20.52l-6.32,6.32-2.09,2.09L8.79,31.56a1.42,1.42,0,0,1-2,0L.42,25.2a1.42,1.42,0,0,1,0-2l3.37-3.37,1-1H21.55Z"/></g></g></svg>