<svg xmlns="http://www.w3.org/2000/svg" viewBox="0 0 199.99 251.17"><defs><style>.cls-1{fill:#dce1f2;}.cls-2{fill:#3356a3;}.cls-3{fill:#fff;}.cls-4{fill:#e8345f;}</style></defs><g id="Layer_2" data-name="Layer 2"><g id="Layer_1-2" data-name="Layer 1"><polygon class="cls-1" points="144.27 27.21 32.11 27.21 88.19 83.29 144.27 27.21"/><polygon class="cls-2" points="144.27 139.37 144.27 139.37 144.27 27.21 144.27 27.21 88.19 83.29 144.27 139.37"/><polygon class="cls-2" points="32.11 27.21 32.11 139.37 32.11 139.37 88.19 83.29 32.11 27.21"/><polygon class="cls-3" points="88.19 83.29 32.11 139.37 144.27 139.37 88.19 83.29"/><rect class="cls-2" x="76.44" y="88.13" width="79.22" height="158.2" transform="translate(-84.26 131.04) rotate(-45)"/><rect class="cls-1" x="32.49" y="93.04" width="79.22" height="124.71" transform="translate(131 -5.47) rotate(45)"/><polygon class="cls-4" points="174.09 8.9 164.76 0 138.09 27.97 123.34 13.9 114.44 23.24 129.2 37.3 129.19 37.31 138.52 46.21 138.53 46.2 138.54 46.21 147.44 36.88 147.43 36.87 174.09 8.9"/></g></g></svg>